<?xml version="1.0" encoding="UTF-8"?>
<svg width="1200pt" height="1200pt" version="1.1" viewBox="0 0 1200 1200" xmlns="http://www.w3.org/2000/svg">
 <path d="m600 500c-26.523 0-51.957 10.535-70.711 29.289-18.754 18.754-29.289 44.188-29.289 70.711s10.535 51.957 29.289 70.711c18.754 18.754 44.188 29.289 70.711 29.289s51.957-10.535 70.711-29.289c18.754-18.754 29.289-44.188 29.289-70.711-0.035156-26.512-10.582-51.926-29.328-70.672s-44.16-29.293-70.672-29.328zm450 50h-53.473c-11.215-87.988-51.328-169.76-114.05-232.48-62.723-62.719-144.49-102.83-232.48-114.05v-53.473c0-17.863-9.5312-34.371-25-43.301-15.469-8.9336-34.531-8.9336-50 0-15.469 8.9297-25 25.438-25 43.301v53.473c-87.988 11.215-169.76 51.328-232.48 114.05-62.719 62.723-102.83 144.49-114.05 232.48h-53.473c-17.863 0-34.371 9.5312-43.301 25-8.9336 15.469-8.9336 34.531 0 50 8.9297 15.469 25.438 25 43.301 25h53.473c11.215 87.988 51.328 169.76 114.05 232.48 62.723 62.719 144.49 102.83 232.48 114.05v53.473c0 17.863 9.5312 34.371 25 43.301 15.469 8.9336 34.531 8.9336 50 0 15.469-8.9297 25-25.438 25-43.301v-53.473c87.988-11.215 169.76-51.328 232.48-114.05 62.719-62.723 102.83-144.49 114.05-232.48h53.473c17.863 0 34.371-9.5312 43.301-25 8.9336-15.469 8.9336-34.531 0-50-8.9297-15.469-25.438-25-43.301-25zm-450 350c-79.566 0-155.87-31.605-212.13-87.867-56.262-56.262-87.867-132.57-87.867-212.13s31.605-155.87 87.867-212.13c56.262-56.262 132.57-87.867 212.13-87.867s155.87 31.605 212.13 87.867c56.262 56.262 87.867 132.57 87.867 212.13-0.085938 79.539-31.723 155.79-87.965 212.04-56.242 56.242-132.5 87.879-212.04 87.965z" fill="#d2d2d2"/>
</svg>
